<svg id="Layer_1" data-name="Layer 1" xmlns="http://www.w3.org/2000/svg" viewBox="0 0 92.74 26.28"><defs><style>.cls-1{fill:#231f20;}</style></defs><title>menu</title><path class="cls-1" d="M27.8,4.4v25.7H27.08V5.3H27L16.1,30.11H15.31L4.4,5.3H4.33v24.8H3.61V4.4H4.8L15.67,29.17h0.07L26.61,4.4H27.8Z" transform="translate(-3.61 -4.4)"/><path class="cls-1" d="M49.94,29.39v0.72H32.73V4.4H49.8V5.12H33.45V16.36H48.83v0.72H33.45V29.39H49.94Z" transform="translate(-3.61 -4.4)"/><path class="cls-1" d="M54.19,4.4l17.57,24.8h0.07V4.4h0.72v25.7H71.47L53.9,5.3H53.83v24.8H53.11V4.4h1.08Z" transform="translate(-3.61 -4.4)"/><path class="cls-1" d="M96.35,4.4V20.53q0,5.18-2.41,7.67t-7,2.48q-4.61,0-7-2.48t-2.41-7.67V4.4H78.2V20.53q0,4.65,2.12,7.06T86.91,30q4.46,0,6.59-2.41t2.12-7.06V4.4h0.72Z" transform="translate(-3.61 -4.4)"/></svg>