<svg id="Layer_1" data-name="Layer 1" xmlns="http://www.w3.org/2000/svg" viewBox="0 0 92.63 24.03"><defs><style>.cls-1{fill:#231f20;}</style></defs><title>menu2</title><path class="cls-1" d="M3.62,5.29H5.69l9.17,21.86h0.07L24,5.29h2.07V28.76H24.63V7.07H24.56l-8.94,21.7H14.17l-9-21.7H5.07v21.7H3.62V5.29Z" transform="translate(-3.62 -5.29)"/><path class="cls-1" d="M32.68,5.29H48.46V6.54H34.13v9.4H47.6v1.25H34.13V27.51h14.5v1.25H32.68V5.29Z" transform="translate(-3.62 -5.29)"/><path class="cls-1" d="M53.55,5.29h1.81L70.19,26.82h0.07V5.29H71.7V28.76H70L55.07,7.07H55v21.7H53.55V5.29Z" transform="translate(-3.62 -5.29)"/><path class="cls-1" d="M79.75,5.29V19.36q0,0.69.07,1.61a10,10,0,0,0,1.07,3.8,5.73,5.73,0,0,0,1.3,1.68,6.17,6.17,0,0,0,2,1.18,8.42,8.42,0,0,0,2.91.44,9.48,9.48,0,0,0,3.63-.61,5.81,5.81,0,0,0,2.37-1.74A7,7,0,0,0,94.41,23a15.24,15.24,0,0,0,.39-3.62V5.29h1.45V19.36a16.38,16.38,0,0,1-.44,3.91,8.26,8.26,0,0,1-1.5,3.16,7.1,7.1,0,0,1-2.81,2.12,10.93,10.93,0,0,1-4.39.77,10.66,10.66,0,0,1-3.55-.53,7.58,7.58,0,0,1-2.45-1.36,6.41,6.41,0,0,1-1.53-1.92,11,11,0,0,1-.85-2.19,10.89,10.89,0,0,1-.36-2.14q-0.07-1-.07-1.83V5.29h1.45Z" transform="translate(-3.62 -5.29)"/></svg>