<svg id="paths" xmlns="http://www.w3.org/2000/svg" viewBox="0 0 98.74 48.72"><defs><style>.cls-1{fill:#231f20;stroke:#231f20;stroke-miterlimit:10;}</style></defs><title>signature</title><path class="cls-1" d="M17.56,20.85l11.8-6.38A45.65,45.65,0,0,1,43,9.74c5.38-.78,8.4,2.44,9.16,5,1.41,4.71-2.67,10.83-6.39,15.63a68.45,68.45,0,0,1-6.52,7.53c-1,1-6.54,6.08-7,6.35-0.69.37-1.26,0.27-1.73-.9a6.16,6.16,0,0,1-.48-2c0-1.11,1.21-1.17,2.23-2.34,0.85-1,14.16-15.79,15.46-21.33,0.83-3.56-2.06-3.26-3.55-3.15a38.26,38.26,0,0,0-10.26,2.92c-0.1.19,2,.69,0.8,3.38S25.35,40.79,24.78,42s-1.56,3.27-1.21,4.61a1.65,1.65,0,0,1,.06,1.5c-0.35.42-2,1.46-2.94-.06s-1.36-3-.56-5.76S26,29.09,29.58,19.7c-2.2,1.15-11.19,5.93-14.49,8A72.9,72.9,0,0,1,3.56,33.53a1.18,1.18,0,0,1-1.8-.94A14,14,0,0,1,1.16,30a1.38,1.38,0,0,1,.75-1.64A154,154,0,0,0,17.56,20.85Z" transform="translate(-0.64 -0.62)"/><path class="cls-1" d="M56.2,24.15c4.13-7.46,5.06-9.83,6.15-12.68s1.27-4.63,0-5.91a3.41,3.41,0,0,0-1.11-.86,1.52,1.52,0,0,0-2.12,1,73.63,73.63,0,0,1-6.9,16.15c-4.83,8.43-4.63,7.79-5.39,9.39s-2.18,4.95-1.3,6.8a4.43,4.43,0,0,0,1,1.31A1,1,0,0,0,48,39.28C48.72,38.49,54.58,27.07,56.2,24.15Z" transform="translate(-0.64 -0.62)"/><path class="cls-1" d="M64.58,23.72a0.78,0.78,0,0,1-.28-1.4c0.51-.46,12.77-11.74,16-15.24,1.5-1.59,2.31-3.59.34-5.12-0.23-.17-0.51-0.39-0.51-0.39a1.75,1.75,0,0,0-2.53.22A148.66,148.66,0,0,1,60.8,18.38,5.6,5.6,0,0,0,59.64,25s1.27,2.89,4,3.49,4.9,0.75,9.68-.71,8.67-3.42,13.34-5.45S96.52,18.31,97.29,18c2.21-.78,2.3-3.74-0.86-3.67-3.69.39-12.48,4.28-14,4.88s-7.05,2.6-7.55,2.78a31.11,31.11,0,0,1-5.58,1.57A24.64,24.64,0,0,1,64.58,23.72Z" transform="translate(-0.64 -0.62)"/></svg>